<mxfile host="app.diagrams.net" modified="2023-12-26T11:29:26.920Z" agent="Mozilla/5.0 (Macintosh; Intel Mac OS X 10_15_7) AppleWebKit/537.36 (KHTML, like Gecko) Chrome/120.0.0.0 Safari/537.36" etag="SonpW6jbiupIa-OabHu3" version="22.1.11" type="device">
  <diagram name="Page-1" id="Iq3kaCA_OFmNqjkNu6pI">
    <mxGraphModel dx="2074" dy="1155" grid="1" gridSize="10" guides="1" tooltips="1" connect="1" arrows="1" fold="1" page="1" pageScale="1" pageWidth="850" pageHeight="1100" math="0" shadow="0">
      <root>
        <mxCell id="0" />
        <mxCell id="1" parent="0" />
        <mxCell id="1XzfA2FKII9AaClCdBNQ-2" value="" style="endArrow=none;html=1;rounded=0;" edge="1" parent="1">
          <mxGeometry width="50" height="50" relative="1" as="geometry">
            <mxPoint x="160" y="440" as="sourcePoint" />
            <mxPoint x="160" y="240" as="targetPoint" />
          </mxGeometry>
        </mxCell>
        <mxCell id="1XzfA2FKII9AaClCdBNQ-3" value="" style="endArrow=none;html=1;rounded=0;" edge="1" parent="1" source="1XzfA2FKII9AaClCdBNQ-26">
          <mxGeometry width="50" height="50" relative="1" as="geometry">
            <mxPoint x="200" y="440" as="sourcePoint" />
            <mxPoint x="200" y="240" as="targetPoint" />
          </mxGeometry>
        </mxCell>
        <mxCell id="1XzfA2FKII9AaClCdBNQ-4" value="" style="endArrow=none;html=1;rounded=0;" edge="1" parent="1">
          <mxGeometry width="50" height="50" relative="1" as="geometry">
            <mxPoint x="280" y="440" as="sourcePoint" />
            <mxPoint x="280" y="240" as="targetPoint" />
          </mxGeometry>
        </mxCell>
        <mxCell id="1XzfA2FKII9AaClCdBNQ-5" value="" style="endArrow=none;html=1;rounded=0;" edge="1" parent="1">
          <mxGeometry width="50" height="50" relative="1" as="geometry">
            <mxPoint x="320" y="440" as="sourcePoint" />
            <mxPoint x="320" y="240" as="targetPoint" />
          </mxGeometry>
        </mxCell>
        <mxCell id="1XzfA2FKII9AaClCdBNQ-6" value="" style="endArrow=none;html=1;rounded=0;" edge="1" parent="1">
          <mxGeometry width="50" height="50" relative="1" as="geometry">
            <mxPoint x="360" y="440" as="sourcePoint" />
            <mxPoint x="360" y="240" as="targetPoint" />
          </mxGeometry>
        </mxCell>
        <mxCell id="1XzfA2FKII9AaClCdBNQ-7" value="" style="endArrow=none;html=1;rounded=0;" edge="1" parent="1">
          <mxGeometry width="50" height="50" relative="1" as="geometry">
            <mxPoint x="240" y="440" as="sourcePoint" />
            <mxPoint x="240" y="240" as="targetPoint" />
          </mxGeometry>
        </mxCell>
        <mxCell id="1XzfA2FKII9AaClCdBNQ-8" value="" style="endArrow=none;html=1;rounded=0;" edge="1" parent="1" source="1XzfA2FKII9AaClCdBNQ-35">
          <mxGeometry width="50" height="50" relative="1" as="geometry">
            <mxPoint x="160" y="280" as="sourcePoint" />
            <mxPoint x="360" y="280" as="targetPoint" />
          </mxGeometry>
        </mxCell>
        <mxCell id="1XzfA2FKII9AaClCdBNQ-9" value="" style="endArrow=none;html=1;rounded=0;" edge="1" parent="1" source="1XzfA2FKII9AaClCdBNQ-36">
          <mxGeometry width="50" height="50" relative="1" as="geometry">
            <mxPoint x="160" y="320" as="sourcePoint" />
            <mxPoint x="360" y="320" as="targetPoint" />
          </mxGeometry>
        </mxCell>
        <mxCell id="1XzfA2FKII9AaClCdBNQ-11" value="" style="endArrow=none;html=1;rounded=0;" edge="1" parent="1" source="1XzfA2FKII9AaClCdBNQ-38">
          <mxGeometry width="50" height="50" relative="1" as="geometry">
            <mxPoint x="160" y="400" as="sourcePoint" />
            <mxPoint x="360" y="400" as="targetPoint" />
          </mxGeometry>
        </mxCell>
        <mxCell id="1XzfA2FKII9AaClCdBNQ-12" value="" style="endArrow=none;html=1;rounded=0;" edge="1" parent="1" source="1XzfA2FKII9AaClCdBNQ-37">
          <mxGeometry width="50" height="50" relative="1" as="geometry">
            <mxPoint x="160" y="360" as="sourcePoint" />
            <mxPoint x="360" y="360" as="targetPoint" />
          </mxGeometry>
        </mxCell>
        <mxCell id="1XzfA2FKII9AaClCdBNQ-13" value="" style="endArrow=none;html=1;rounded=0;" edge="1" parent="1">
          <mxGeometry width="50" height="50" relative="1" as="geometry">
            <mxPoint x="480" y="400" as="sourcePoint" />
            <mxPoint x="480" y="240" as="targetPoint" />
          </mxGeometry>
        </mxCell>
        <mxCell id="1XzfA2FKII9AaClCdBNQ-14" value="" style="endArrow=none;html=1;rounded=0;" edge="1" parent="1">
          <mxGeometry width="50" height="50" relative="1" as="geometry">
            <mxPoint x="520" y="400" as="sourcePoint" />
            <mxPoint x="520" y="240" as="targetPoint" />
          </mxGeometry>
        </mxCell>
        <mxCell id="1XzfA2FKII9AaClCdBNQ-15" value="" style="endArrow=none;html=1;rounded=0;" edge="1" parent="1">
          <mxGeometry width="50" height="50" relative="1" as="geometry">
            <mxPoint x="600" y="400" as="sourcePoint" />
            <mxPoint x="600" y="240" as="targetPoint" />
          </mxGeometry>
        </mxCell>
        <mxCell id="1XzfA2FKII9AaClCdBNQ-16" value="" style="endArrow=none;html=1;rounded=0;" edge="1" parent="1">
          <mxGeometry width="50" height="50" relative="1" as="geometry">
            <mxPoint x="640" y="400" as="sourcePoint" />
            <mxPoint x="640" y="240" as="targetPoint" />
          </mxGeometry>
        </mxCell>
        <mxCell id="1XzfA2FKII9AaClCdBNQ-18" value="" style="endArrow=none;html=1;rounded=0;" edge="1" parent="1">
          <mxGeometry width="50" height="50" relative="1" as="geometry">
            <mxPoint x="560" y="400" as="sourcePoint" />
            <mxPoint x="560" y="240" as="targetPoint" />
          </mxGeometry>
        </mxCell>
        <mxCell id="1XzfA2FKII9AaClCdBNQ-19" value="" style="endArrow=none;html=1;rounded=0;" edge="1" parent="1">
          <mxGeometry width="50" height="50" relative="1" as="geometry">
            <mxPoint x="480" y="280" as="sourcePoint" />
            <mxPoint x="640" y="280" as="targetPoint" />
          </mxGeometry>
        </mxCell>
        <mxCell id="1XzfA2FKII9AaClCdBNQ-20" value="" style="endArrow=none;html=1;rounded=0;" edge="1" parent="1">
          <mxGeometry width="50" height="50" relative="1" as="geometry">
            <mxPoint x="480" y="320" as="sourcePoint" />
            <mxPoint x="640" y="320" as="targetPoint" />
          </mxGeometry>
        </mxCell>
        <mxCell id="1XzfA2FKII9AaClCdBNQ-21" value="" style="endArrow=none;html=1;rounded=0;" edge="1" parent="1">
          <mxGeometry width="50" height="50" relative="1" as="geometry">
            <mxPoint x="480" y="400" as="sourcePoint" />
            <mxPoint x="640" y="400" as="targetPoint" />
          </mxGeometry>
        </mxCell>
        <mxCell id="1XzfA2FKII9AaClCdBNQ-22" value="" style="endArrow=none;html=1;rounded=0;" edge="1" parent="1">
          <mxGeometry width="50" height="50" relative="1" as="geometry">
            <mxPoint x="480" y="360" as="sourcePoint" />
            <mxPoint x="640" y="360" as="targetPoint" />
          </mxGeometry>
        </mxCell>
        <mxCell id="1XzfA2FKII9AaClCdBNQ-23" value="" style="endArrow=none;html=1;rounded=0;" edge="1" parent="1" source="1XzfA2FKII9AaClCdBNQ-39">
          <mxGeometry width="50" height="50" relative="1" as="geometry">
            <mxPoint x="160" y="440" as="sourcePoint" />
            <mxPoint x="360" y="440" as="targetPoint" />
          </mxGeometry>
        </mxCell>
        <mxCell id="1XzfA2FKII9AaClCdBNQ-24" value="" style="endArrow=none;html=1;rounded=0;" edge="1" parent="1" source="1XzfA2FKII9AaClCdBNQ-40">
          <mxGeometry width="50" height="50" relative="1" as="geometry">
            <mxPoint x="160" y="240" as="sourcePoint" />
            <mxPoint x="360" y="240" as="targetPoint" />
          </mxGeometry>
        </mxCell>
        <mxCell id="1XzfA2FKII9AaClCdBNQ-25" value="" style="endArrow=none;html=1;rounded=0;" edge="1" parent="1">
          <mxGeometry width="50" height="50" relative="1" as="geometry">
            <mxPoint x="480" y="240" as="sourcePoint" />
            <mxPoint x="640" y="240" as="targetPoint" />
          </mxGeometry>
        </mxCell>
        <mxCell id="1XzfA2FKII9AaClCdBNQ-27" value="" style="endArrow=none;html=1;rounded=0;" edge="1" parent="1" source="1XzfA2FKII9AaClCdBNQ-28" target="1XzfA2FKII9AaClCdBNQ-26">
          <mxGeometry width="50" height="50" relative="1" as="geometry">
            <mxPoint x="200" y="440" as="sourcePoint" />
            <mxPoint x="200" y="240" as="targetPoint" />
          </mxGeometry>
        </mxCell>
        <mxCell id="1XzfA2FKII9AaClCdBNQ-26" value="" style="ellipse;whiteSpace=wrap;html=1;aspect=fixed;fillColor=#666666;strokeColor=#666666;" vertex="1" parent="1">
          <mxGeometry x="195" y="275" width="10" height="10" as="geometry" />
        </mxCell>
        <mxCell id="1XzfA2FKII9AaClCdBNQ-29" value="" style="endArrow=none;html=1;rounded=0;" edge="1" parent="1" target="1XzfA2FKII9AaClCdBNQ-28">
          <mxGeometry width="50" height="50" relative="1" as="geometry">
            <mxPoint x="200" y="440" as="sourcePoint" />
            <mxPoint x="200" y="285" as="targetPoint" />
          </mxGeometry>
        </mxCell>
        <mxCell id="1XzfA2FKII9AaClCdBNQ-28" value="" style="ellipse;whiteSpace=wrap;html=1;aspect=fixed;strokeColor=#666666;fillColor=#666666;" vertex="1" parent="1">
          <mxGeometry x="195" y="315" width="10" height="10" as="geometry" />
        </mxCell>
        <mxCell id="1XzfA2FKII9AaClCdBNQ-31" value="" style="ellipse;whiteSpace=wrap;html=1;aspect=fixed;strokeColor=#292929;fillColor=#4D4D4D;" vertex="1" parent="1">
          <mxGeometry x="195" y="355" width="10" height="10" as="geometry" />
        </mxCell>
        <mxCell id="1XzfA2FKII9AaClCdBNQ-32" value="" style="ellipse;whiteSpace=wrap;html=1;aspect=fixed;strokeColor=#292929;fillColor=#292929;" vertex="1" parent="1">
          <mxGeometry x="195" y="395" width="10" height="10" as="geometry" />
        </mxCell>
        <mxCell id="1XzfA2FKII9AaClCdBNQ-33" value="" style="ellipse;whiteSpace=wrap;html=1;aspect=fixed;strokeColor=#292929;fillColor=#292929;" vertex="1" parent="1">
          <mxGeometry x="195" y="435" width="10" height="10" as="geometry" />
        </mxCell>
        <mxCell id="1XzfA2FKII9AaClCdBNQ-34" value="" style="ellipse;whiteSpace=wrap;html=1;aspect=fixed;fillColor=#666666;strokeColor=#666666;" vertex="1" parent="1">
          <mxGeometry x="195" y="235" width="10" height="10" as="geometry" />
        </mxCell>
        <mxCell id="1XzfA2FKII9AaClCdBNQ-42" value="" style="endArrow=none;html=1;rounded=0;" edge="1" parent="1" target="1XzfA2FKII9AaClCdBNQ-40">
          <mxGeometry width="50" height="50" relative="1" as="geometry">
            <mxPoint x="160" y="240" as="sourcePoint" />
            <mxPoint x="360" y="240" as="targetPoint" />
          </mxGeometry>
        </mxCell>
        <mxCell id="1XzfA2FKII9AaClCdBNQ-40" value="" style="ellipse;whiteSpace=wrap;html=1;aspect=fixed;fillColor=#888888;strokeColor=#888888;" vertex="1" parent="1">
          <mxGeometry x="155" y="235" width="10" height="10" as="geometry" />
        </mxCell>
        <mxCell id="1XzfA2FKII9AaClCdBNQ-43" value="" style="endArrow=none;html=1;rounded=0;" edge="1" parent="1" target="1XzfA2FKII9AaClCdBNQ-35">
          <mxGeometry width="50" height="50" relative="1" as="geometry">
            <mxPoint x="160" y="280" as="sourcePoint" />
            <mxPoint x="360" y="280" as="targetPoint" />
          </mxGeometry>
        </mxCell>
        <mxCell id="1XzfA2FKII9AaClCdBNQ-35" value="" style="ellipse;whiteSpace=wrap;html=1;aspect=fixed;strokeColor=#666666;fillColor=#666666;" vertex="1" parent="1">
          <mxGeometry x="155" y="275" width="10" height="10" as="geometry" />
        </mxCell>
        <mxCell id="1XzfA2FKII9AaClCdBNQ-44" value="" style="endArrow=none;html=1;rounded=0;" edge="1" parent="1" target="1XzfA2FKII9AaClCdBNQ-36">
          <mxGeometry width="50" height="50" relative="1" as="geometry">
            <mxPoint x="160" y="320" as="sourcePoint" />
            <mxPoint x="360" y="320" as="targetPoint" />
          </mxGeometry>
        </mxCell>
        <mxCell id="1XzfA2FKII9AaClCdBNQ-36" value="" style="ellipse;whiteSpace=wrap;html=1;aspect=fixed;strokeColor=#888888;fillColor=#888888;" vertex="1" parent="1">
          <mxGeometry x="155" y="315" width="10" height="10" as="geometry" />
        </mxCell>
        <mxCell id="1XzfA2FKII9AaClCdBNQ-45" value="" style="endArrow=none;html=1;rounded=0;" edge="1" parent="1" target="1XzfA2FKII9AaClCdBNQ-37">
          <mxGeometry width="50" height="50" relative="1" as="geometry">
            <mxPoint x="160" y="360" as="sourcePoint" />
            <mxPoint x="360" y="360" as="targetPoint" />
          </mxGeometry>
        </mxCell>
        <mxCell id="1XzfA2FKII9AaClCdBNQ-37" value="" style="ellipse;whiteSpace=wrap;html=1;aspect=fixed;fillColor=#4D4D4D;" vertex="1" parent="1">
          <mxGeometry x="155" y="355" width="10" height="10" as="geometry" />
        </mxCell>
        <mxCell id="1XzfA2FKII9AaClCdBNQ-46" value="" style="endArrow=none;html=1;rounded=0;" edge="1" parent="1" target="1XzfA2FKII9AaClCdBNQ-38">
          <mxGeometry width="50" height="50" relative="1" as="geometry">
            <mxPoint x="160" y="400" as="sourcePoint" />
            <mxPoint x="360" y="400" as="targetPoint" />
          </mxGeometry>
        </mxCell>
        <mxCell id="1XzfA2FKII9AaClCdBNQ-38" value="" style="ellipse;whiteSpace=wrap;html=1;aspect=fixed;strokeColor=#1A1A1A;fillColor=#1A1A1A;" vertex="1" parent="1">
          <mxGeometry x="155" y="395" width="10" height="10" as="geometry" />
        </mxCell>
        <mxCell id="1XzfA2FKII9AaClCdBNQ-47" value="" style="endArrow=none;html=1;rounded=0;" edge="1" parent="1" target="1XzfA2FKII9AaClCdBNQ-39">
          <mxGeometry width="50" height="50" relative="1" as="geometry">
            <mxPoint x="160" y="440" as="sourcePoint" />
            <mxPoint x="360" y="440" as="targetPoint" />
          </mxGeometry>
        </mxCell>
        <mxCell id="1XzfA2FKII9AaClCdBNQ-39" value="" style="ellipse;whiteSpace=wrap;html=1;aspect=fixed;strokeColor=#999999;fillColor=#999999;" vertex="1" parent="1">
          <mxGeometry x="155" y="435" width="10" height="10" as="geometry" />
        </mxCell>
        <mxCell id="1XzfA2FKII9AaClCdBNQ-48" value="" style="ellipse;whiteSpace=wrap;html=1;aspect=fixed;fillColor=#181818;strokeColor=#181818;" vertex="1" parent="1">
          <mxGeometry x="235" y="275" width="10" height="10" as="geometry" />
        </mxCell>
        <mxCell id="1XzfA2FKII9AaClCdBNQ-49" value="" style="ellipse;whiteSpace=wrap;html=1;aspect=fixed;strokeColor=#181818;gradientColor=none;fillColor=#181818;" vertex="1" parent="1">
          <mxGeometry x="235" y="315" width="10" height="10" as="geometry" />
        </mxCell>
        <mxCell id="1XzfA2FKII9AaClCdBNQ-50" value="" style="ellipse;whiteSpace=wrap;html=1;aspect=fixed;strokeColor=#292929;fillColor=#292929;" vertex="1" parent="1">
          <mxGeometry x="235" y="355" width="10" height="10" as="geometry" />
        </mxCell>
        <mxCell id="1XzfA2FKII9AaClCdBNQ-51" value="" style="ellipse;whiteSpace=wrap;html=1;aspect=fixed;strokeColor=#4D4D4D;fillColor=#4D4D4D;" vertex="1" parent="1">
          <mxGeometry x="235" y="395" width="10" height="10" as="geometry" />
        </mxCell>
        <mxCell id="1XzfA2FKII9AaClCdBNQ-52" value="" style="ellipse;whiteSpace=wrap;html=1;aspect=fixed;strokeColor=#888888;fillColor=#888888;" vertex="1" parent="1">
          <mxGeometry x="235" y="435" width="10" height="10" as="geometry" />
        </mxCell>
        <mxCell id="1XzfA2FKII9AaClCdBNQ-53" value="" style="ellipse;whiteSpace=wrap;html=1;aspect=fixed;fillColor=#181818;strokeColor=#181818;" vertex="1" parent="1">
          <mxGeometry x="235" y="235" width="10" height="10" as="geometry" />
        </mxCell>
        <mxCell id="1XzfA2FKII9AaClCdBNQ-54" value="" style="ellipse;whiteSpace=wrap;html=1;aspect=fixed;strokeColor=#292929;fillColor=#292929;" vertex="1" parent="1">
          <mxGeometry x="275" y="275" width="10" height="10" as="geometry" />
        </mxCell>
        <mxCell id="1XzfA2FKII9AaClCdBNQ-55" value="" style="ellipse;whiteSpace=wrap;html=1;aspect=fixed;strokeColor=#181818;fillColor=#181818;" vertex="1" parent="1">
          <mxGeometry x="275" y="315" width="10" height="10" as="geometry" />
        </mxCell>
        <mxCell id="1XzfA2FKII9AaClCdBNQ-56" value="" style="ellipse;whiteSpace=wrap;html=1;aspect=fixed;strokeColor=#181818;fillColor=#181818;" vertex="1" parent="1">
          <mxGeometry x="275" y="355" width="10" height="10" as="geometry" />
        </mxCell>
        <mxCell id="1XzfA2FKII9AaClCdBNQ-57" value="" style="ellipse;whiteSpace=wrap;html=1;aspect=fixed;strokeColor=#B3B3B3;fillColor=#B3B3B3;" vertex="1" parent="1">
          <mxGeometry x="275" y="395" width="10" height="10" as="geometry" />
        </mxCell>
        <mxCell id="1XzfA2FKII9AaClCdBNQ-58" value="" style="ellipse;whiteSpace=wrap;html=1;aspect=fixed;strokeColor=#A1A1A1;fillColor=#A1A1A1;" vertex="1" parent="1">
          <mxGeometry x="275" y="435" width="10" height="10" as="geometry" />
        </mxCell>
        <mxCell id="1XzfA2FKII9AaClCdBNQ-59" value="" style="ellipse;whiteSpace=wrap;html=1;aspect=fixed;fillColor=#545454;strokeColor=#545454;" vertex="1" parent="1">
          <mxGeometry x="275" y="235" width="10" height="10" as="geometry" />
        </mxCell>
        <mxCell id="1XzfA2FKII9AaClCdBNQ-60" value="" style="ellipse;whiteSpace=wrap;html=1;aspect=fixed;fillColor=#888888;strokeColor=#888888;" vertex="1" parent="1">
          <mxGeometry x="315" y="275" width="10" height="10" as="geometry" />
        </mxCell>
        <mxCell id="1XzfA2FKII9AaClCdBNQ-61" value="" style="ellipse;whiteSpace=wrap;html=1;aspect=fixed;strokeColor=#666666;fillColor=#666666;" vertex="1" parent="1">
          <mxGeometry x="315" y="315" width="10" height="10" as="geometry" />
        </mxCell>
        <mxCell id="1XzfA2FKII9AaClCdBNQ-62" value="" style="ellipse;whiteSpace=wrap;html=1;aspect=fixed;strokeColor=#666666;fillColor=#666666;" vertex="1" parent="1">
          <mxGeometry x="315" y="355" width="10" height="10" as="geometry" />
        </mxCell>
        <mxCell id="1XzfA2FKII9AaClCdBNQ-63" value="" style="ellipse;whiteSpace=wrap;html=1;aspect=fixed;strokeColor=#A1A1A1;fillColor=#A1A1A1;" vertex="1" parent="1">
          <mxGeometry x="315" y="395" width="10" height="10" as="geometry" />
        </mxCell>
        <mxCell id="1XzfA2FKII9AaClCdBNQ-64" value="" style="ellipse;whiteSpace=wrap;html=1;aspect=fixed;strokeColor=#B3B3B3;fillColor=#B3B3B3;" vertex="1" parent="1">
          <mxGeometry x="315" y="435" width="10" height="10" as="geometry" />
        </mxCell>
        <mxCell id="1XzfA2FKII9AaClCdBNQ-65" value="" style="ellipse;whiteSpace=wrap;html=1;aspect=fixed;fillColor=#292929;strokeColor=#292929;" vertex="1" parent="1">
          <mxGeometry x="315" y="235" width="10" height="10" as="geometry" />
        </mxCell>
        <mxCell id="1XzfA2FKII9AaClCdBNQ-66" value="" style="ellipse;whiteSpace=wrap;html=1;aspect=fixed;fillColor=#A1A1A1;strokeColor=#A1A1A1;" vertex="1" parent="1">
          <mxGeometry x="355" y="275" width="10" height="10" as="geometry" />
        </mxCell>
        <mxCell id="1XzfA2FKII9AaClCdBNQ-67" value="" style="ellipse;whiteSpace=wrap;html=1;aspect=fixed;strokeColor=#545454;gradientColor=none;fillColor=#545454;" vertex="1" parent="1">
          <mxGeometry x="355" y="315" width="10" height="10" as="geometry" />
        </mxCell>
        <mxCell id="1XzfA2FKII9AaClCdBNQ-68" value="" style="ellipse;whiteSpace=wrap;html=1;aspect=fixed;strokeColor=#888888;fillColor=#888888;" vertex="1" parent="1">
          <mxGeometry x="355" y="355" width="10" height="10" as="geometry" />
        </mxCell>
        <mxCell id="1XzfA2FKII9AaClCdBNQ-69" value="" style="ellipse;whiteSpace=wrap;html=1;aspect=fixed;strokeColor=#B3B3B3;fillColor=#B3B3B3;" vertex="1" parent="1">
          <mxGeometry x="355" y="395" width="10" height="10" as="geometry" />
        </mxCell>
        <mxCell id="1XzfA2FKII9AaClCdBNQ-70" value="" style="ellipse;whiteSpace=wrap;html=1;aspect=fixed;strokeColor=#545454;fillColor=#545454;" vertex="1" parent="1">
          <mxGeometry x="355" y="435" width="10" height="10" as="geometry" />
        </mxCell>
        <mxCell id="1XzfA2FKII9AaClCdBNQ-71" value="" style="ellipse;whiteSpace=wrap;html=1;aspect=fixed;fillColor=#A1A1A1;strokeColor=#A1A1A1;" vertex="1" parent="1">
          <mxGeometry x="355" y="235" width="10" height="10" as="geometry" />
        </mxCell>
        <mxCell id="1XzfA2FKII9AaClCdBNQ-72" value="" style="ellipse;whiteSpace=wrap;html=1;aspect=fixed;" vertex="1" parent="1">
          <mxGeometry x="475" y="275" width="10" height="10" as="geometry" />
        </mxCell>
        <mxCell id="1XzfA2FKII9AaClCdBNQ-73" value="" style="ellipse;whiteSpace=wrap;html=1;aspect=fixed;" vertex="1" parent="1">
          <mxGeometry x="475" y="315" width="10" height="10" as="geometry" />
        </mxCell>
        <mxCell id="1XzfA2FKII9AaClCdBNQ-74" value="" style="ellipse;whiteSpace=wrap;html=1;aspect=fixed;" vertex="1" parent="1">
          <mxGeometry x="475" y="355" width="10" height="10" as="geometry" />
        </mxCell>
        <mxCell id="1XzfA2FKII9AaClCdBNQ-75" value="" style="ellipse;whiteSpace=wrap;html=1;aspect=fixed;" vertex="1" parent="1">
          <mxGeometry x="475" y="395" width="10" height="10" as="geometry" />
        </mxCell>
        <mxCell id="1XzfA2FKII9AaClCdBNQ-77" value="" style="ellipse;whiteSpace=wrap;html=1;aspect=fixed;fillColor=#888888;strokeColor=#888888;" vertex="1" parent="1">
          <mxGeometry x="475" y="235" width="10" height="10" as="geometry" />
        </mxCell>
        <mxCell id="1XzfA2FKII9AaClCdBNQ-78" value="" style="ellipse;whiteSpace=wrap;html=1;aspect=fixed;" vertex="1" parent="1">
          <mxGeometry x="515" y="275" width="10" height="10" as="geometry" />
        </mxCell>
        <mxCell id="1XzfA2FKII9AaClCdBNQ-79" value="" style="ellipse;whiteSpace=wrap;html=1;aspect=fixed;" vertex="1" parent="1">
          <mxGeometry x="515" y="315" width="10" height="10" as="geometry" />
        </mxCell>
        <mxCell id="1XzfA2FKII9AaClCdBNQ-80" value="" style="ellipse;whiteSpace=wrap;html=1;aspect=fixed;" vertex="1" parent="1">
          <mxGeometry x="515" y="355" width="10" height="10" as="geometry" />
        </mxCell>
        <mxCell id="1XzfA2FKII9AaClCdBNQ-81" value="" style="ellipse;whiteSpace=wrap;html=1;aspect=fixed;" vertex="1" parent="1">
          <mxGeometry x="515" y="395" width="10" height="10" as="geometry" />
        </mxCell>
        <mxCell id="1XzfA2FKII9AaClCdBNQ-83" value="" style="ellipse;whiteSpace=wrap;html=1;aspect=fixed;" vertex="1" parent="1">
          <mxGeometry x="515" y="235" width="10" height="10" as="geometry" />
        </mxCell>
        <mxCell id="1XzfA2FKII9AaClCdBNQ-84" value="" style="ellipse;whiteSpace=wrap;html=1;aspect=fixed;" vertex="1" parent="1">
          <mxGeometry x="555" y="275" width="10" height="10" as="geometry" />
        </mxCell>
        <mxCell id="1XzfA2FKII9AaClCdBNQ-85" value="" style="ellipse;whiteSpace=wrap;html=1;aspect=fixed;" vertex="1" parent="1">
          <mxGeometry x="555" y="315" width="10" height="10" as="geometry" />
        </mxCell>
        <mxCell id="1XzfA2FKII9AaClCdBNQ-86" value="" style="ellipse;whiteSpace=wrap;html=1;aspect=fixed;" vertex="1" parent="1">
          <mxGeometry x="555" y="355" width="10" height="10" as="geometry" />
        </mxCell>
        <mxCell id="1XzfA2FKII9AaClCdBNQ-87" value="" style="ellipse;whiteSpace=wrap;html=1;aspect=fixed;" vertex="1" parent="1">
          <mxGeometry x="555" y="395" width="10" height="10" as="geometry" />
        </mxCell>
        <mxCell id="1XzfA2FKII9AaClCdBNQ-89" value="" style="ellipse;whiteSpace=wrap;html=1;aspect=fixed;" vertex="1" parent="1">
          <mxGeometry x="555" y="235" width="10" height="10" as="geometry" />
        </mxCell>
        <mxCell id="1XzfA2FKII9AaClCdBNQ-90" value="" style="ellipse;whiteSpace=wrap;html=1;aspect=fixed;" vertex="1" parent="1">
          <mxGeometry x="596" y="275" width="10" height="10" as="geometry" />
        </mxCell>
        <mxCell id="1XzfA2FKII9AaClCdBNQ-91" value="" style="ellipse;whiteSpace=wrap;html=1;aspect=fixed;" vertex="1" parent="1">
          <mxGeometry x="596" y="315" width="10" height="10" as="geometry" />
        </mxCell>
        <mxCell id="1XzfA2FKII9AaClCdBNQ-92" value="" style="ellipse;whiteSpace=wrap;html=1;aspect=fixed;" vertex="1" parent="1">
          <mxGeometry x="596" y="355" width="10" height="10" as="geometry" />
        </mxCell>
        <mxCell id="1XzfA2FKII9AaClCdBNQ-93" value="" style="ellipse;whiteSpace=wrap;html=1;aspect=fixed;" vertex="1" parent="1">
          <mxGeometry x="596" y="395" width="10" height="10" as="geometry" />
        </mxCell>
        <mxCell id="1XzfA2FKII9AaClCdBNQ-95" value="" style="ellipse;whiteSpace=wrap;html=1;aspect=fixed;" vertex="1" parent="1">
          <mxGeometry x="596" y="235" width="10" height="10" as="geometry" />
        </mxCell>
        <mxCell id="1XzfA2FKII9AaClCdBNQ-96" value="" style="ellipse;whiteSpace=wrap;html=1;aspect=fixed;" vertex="1" parent="1">
          <mxGeometry x="635" y="275" width="10" height="10" as="geometry" />
        </mxCell>
        <mxCell id="1XzfA2FKII9AaClCdBNQ-97" value="" style="ellipse;whiteSpace=wrap;html=1;aspect=fixed;" vertex="1" parent="1">
          <mxGeometry x="635" y="315" width="10" height="10" as="geometry" />
        </mxCell>
        <mxCell id="1XzfA2FKII9AaClCdBNQ-98" value="" style="ellipse;whiteSpace=wrap;html=1;aspect=fixed;" vertex="1" parent="1">
          <mxGeometry x="635" y="355" width="10" height="10" as="geometry" />
        </mxCell>
        <mxCell id="1XzfA2FKII9AaClCdBNQ-99" value="" style="ellipse;whiteSpace=wrap;html=1;aspect=fixed;" vertex="1" parent="1">
          <mxGeometry x="635" y="395" width="10" height="10" as="geometry" />
        </mxCell>
        <mxCell id="1XzfA2FKII9AaClCdBNQ-101" value="" style="ellipse;whiteSpace=wrap;html=1;aspect=fixed;" vertex="1" parent="1">
          <mxGeometry x="635" y="235" width="10" height="10" as="geometry" />
        </mxCell>
        <mxCell id="1XzfA2FKII9AaClCdBNQ-103" value="" style="ellipse;whiteSpace=wrap;html=1;aspect=fixed;fillColor=#888888;strokeColor=#888888;" vertex="1" parent="1">
          <mxGeometry x="203" y="283" width="10" height="10" as="geometry" />
        </mxCell>
        <mxCell id="1XzfA2FKII9AaClCdBNQ-105" value="" style="curved=1;endArrow=classic;html=1;rounded=0;edgeStyle=orthogonalEdgeStyle;" edge="1" parent="1">
          <mxGeometry width="50" height="50" relative="1" as="geometry">
            <mxPoint x="520" y="280" as="sourcePoint" />
            <mxPoint x="210" y="288" as="targetPoint" />
            <Array as="points">
              <mxPoint x="520" y="140" />
              <mxPoint x="210" y="140" />
            </Array>
          </mxGeometry>
        </mxCell>
      </root>
    </mxGraphModel>
  </diagram>
</mxfile>
